<svg id="Capa_1" enable-background="new 0 0 512 512" height="512" viewBox="0 0 512 512" width="512" xmlns="http://www.w3.org/2000/svg"><g><path d="m511.975 87h.025v-42c0-24.813-20.187-45-45-45h-422c-24.813 0-45 20.187-45 45v42h.025c0 1.5.2 3.007.658 4.474l43.914 140.526h-29.597c-8.284 0-15 6.716-15 15v250c0 8.284 6.716 15 15 15h482c8.284 0 15-6.716 15-15v-250c0-8.284-6.716-15-15-15h-29.597l43.915-140.526c.458-1.467.658-2.974.657-4.474zm-481.975-42c0-8.271 6.729-15 15-15h422c8.271 0 15 6.729 15 15v27h-452zm0 437v-58.493c29.342 5.98 52.512 29.151 58.493 58.493zm393.507 0c5.98-29.342 29.151-52.513 58.493-58.493v58.493zm58.493-88.924c-45.916 6.597-82.327 43.008-88.924 88.924h-274.152c-6.597-45.916-43.008-82.327-88.924-88.924v-131.076h35 116v105c0 8.284 6.716 15 15 15h120c8.284 0 15-6.716 15-15v-105h116 35zm-271-131.076h90v90h-90zm224.972-30h-119.972-120-119.972l-40.625-130h441.194z"/><circle cx="256" cy="307" r="15"/></g></svg>