<svg height="64" viewBox="-46 0 512 512" width="64" xmlns="http://www.w3.org/2000/svg"><path d="m286.535156 160h-156.535156c0 36-120 123-120 242 0 55.226562 44.769531 100 100 100 18.21875 0 35.296875-4.875 50.007812-13.386719 14.707032 8.507813 31.777344 13.386719 49.992188 13.386719s35.285156-4.878906 49.992188-13.386719c14.710937 8.511719 31.789062 13.386719 50.007812 13.386719 55.230469 0 100-44.773438 100-100 0-89-123.464844-201-123.464844-242zm0 0" fill="#ee3c32"/><path d="m142 120s-23-44-23-66 25-27 42-24 36 16 36 16 11-36 34-36c35 0 23 41 23 41s32-20 43-3-25 72-25 72zm0 0" fill="#ee3c32"/><path d="m290 160h-160c-11.046875 0-20-8.953125-20-20s8.953125-20 20-20h160c11.046875 0 20 8.953125 20 20s-8.953125 20-20 20zm0 0" fill="#e6e6e6"/><path d="m338.894531 232.515625c-17.070312-23.835937-34.609375-48.332031-40.378906-63.753906 12.40625-3.679688 21.484375-15.175781 21.484375-28.761719 0-16.542969-13.457031-30-30-30h-.347656c2.546875-4.542969 5.335937-9.78125 7.984375-15.296875 12.0625-25.105469 14.527343-41.675781 7.757812-52.136719-8.855469-13.683594-25.195312-13.019531-39.421875-8.230468-.246094-7.25-1.9375-15.3125-6.917968-21.957032-4.230469-5.648437-12.53125-12.378906-28.054688-12.378906-20.1875 0-32.667969 18.644531-38.851562 31.417969-7.761719-4.246094-18.785157-9.390625-29.410157-11.265625-12.671875-2.234375-30.484375-1.042969-42.464843 9.007812-7.375 6.1875-11.273438 14.777344-11.273438 24.839844 0 16.109375 9.945312 40.640625 17.128906 56.257812-14.71875 1.90625-26.128906 14.511719-26.128906 29.742188 0 12.25 7.382812 22.800781 17.933594 27.457031-4.804688 10.582031-17.316406 26.476563-30.398438 43.097657-17.640625 22.410156-39.59375 50.300781-56.914062 82.132812-20.605469 37.863281-30.621094 73.621094-30.621094 109.3125 0 60.652344 49.347656 110 110 110 17.425781 0 34.597656-4.136719 50.007812-12.003906 15.414063 7.867187 32.582032 12.003906 49.992188 12.003906s34.578125-4.136719 49.992188-12.003906c15.410156 7.867187 32.582031 12.003906 50.007812 12.003906 60.652344 0 110-49.347656 110-110 0-56.226562-44.972656-119.027344-81.105469-169.484375zm-50.289062-179.082031c.035156.058594 3.464843 6.613281-8.917969 32.449218-4.707031 9.820313-10.039062 18.917969-13.21875 24.117188h-20.785156l16.667968-52.277344c8.996094-4.828125 22.898438-9.472656 26.253907-4.289062zm-155.476563-8.953125c5.359375-4.496094 16.105469-6.402344 26.132813-4.632813 8.953125 1.578125 18.914062 6.585938 25.328125 10.253906l-2.875 7.183594c-2.050782 5.128906.441406 10.949219 5.570312 13 1.21875.488282 2.476563.71875 3.710938.71875 3.96875 0 7.726562-2.378906 9.289062-6.289062l6-15c.070313-.175782.121094-.351563.179688-.527344.027344-.085938.066406-.164062.09375-.246094 2.328125-7.507812 11.808594-28.941406 24.441406-28.941406 8.753906 0 11.222656 3.269531 12.03125 4.347656 4.828125 6.398438 2.566406 19.625 1.382812 23.796875l-19.722656 61.855469h-26.691406v-9c0-5.523438-4.476562-10-10-10s-10 4.476562-10 10v9h-29.84375c-7.097656-14.484375-19.15625-42.011719-19.15625-56 0-4.128906 1.3125-7.15625 4.128906-9.519531zm-3.128906 85.519531h160c5.515625 0 10 4.484375 10 10s-4.484375 10-10 10h-160c-5.515625 0-10-4.484375-10-10s4.484375-10 10-10zm180 362c-10.265625 0-20.417969-1.761719-30.003906-5.144531 10.097656-8.339844 18.6875-18.449219 25.28125-29.847657 2.765625-4.78125 1.132812-10.898437-3.648438-13.664062s-10.898437-1.128906-13.664062 3.648438c-7.886719 13.632812-19.25 25.007812-32.871094 32.910156-.035156.023437-.070312.035156-.109375.054687-13.617187 7.878907-29.171875 12.042969-44.984375 12.042969s-31.367188-4.164062-44.984375-12.042969c-.117187-.066406-.242187-.113281-.363281-.175781-.09375-.0625-.179688-.128906-.28125-.1875-13.375-7.882812-24.558594-19.15625-32.335938-32.597656-2.761718-4.78125-8.882812-6.414063-13.664062-3.648438-4.777344 2.765625-6.410156 8.882813-3.644532 13.664063 6.585938 11.386719 15.179688 21.5 25.28125 29.839843-9.585937 3.382813-19.738281 5.148438-30.007812 5.148438-49.625 0-90-40.375-90-90 0-73.308594 48.117188-134.441406 83.25-179.074219 17.140625-21.773437 30.457031-38.695312 35.03125-52.925781h22.882812l-17.605468 53.328125c-1.730469 5.242187 1.121094 10.910156 6.363281 12.640625 1.019531.332031 2.066406.5 3.128906.5 4.328125 0 8.140625-2.757812 9.5-6.867188l19.683594-59.601562h52.386719c2.390625 12.214844 7.710937 34.914062 16.65625 50.886719 1.832031 3.273437 5.230468 5.117187 8.730468 5.117187 1.65625 0 3.332032-.414062 4.878907-1.277344 4.816406-2.699218 6.539062-8.792968 3.839843-13.613281-6.75-12.050781-11.257812-29.648437-13.683593-41.113281h22.949219c5.09375 18.933594 22.945312 43.867188 44.640624 74.160156 34.46875 48.132813 77.367188 108.035156 77.367188 157.839844 0 49.625-40.375 90-90 90zm0 0"/><path d="m143.648438 254.960938c-1.019532-.339844-2.078126-.511719-3.136719-.511719-4.320313 0-8.140625 2.761719-9.5 6.871093-1.722657 5.230469 1.128906 10.898438 6.367187 12.628907 1.011719.339843 2.070313.511719 3.132813.511719 4.316406 0 8.136719-2.761719 9.5-6.871094 1.71875-5.238282-1.132813-10.898438-6.363281-12.628906zm0 0"/></svg>