<?xml version="1.0" encoding="iso-8859-1"?>
<!-- Generator: Adobe Illustrator 19.0.0, SVG Export Plug-In . SVG Version: 6.00 Build 0)  -->
<svg version="1.1" id="Capa_1" xmlns="http://www.w3.org/2000/svg" xmlns:xlink="http://www.w3.org/1999/xlink" x="0px" y="0px"
	 viewBox="0 0 470.26 470.26" style="enable-background:new 0 0 470.26 470.26;" xml:space="preserve">
<g>
	<path d="M333.194,159.117c-18.948-21.026-36.991-41.053-51.027-62.176c2.586-1.184,4.386-3.787,4.386-6.817
		c0-1.247-0.309-2.421-0.848-3.456c9.061-8.544,20.157-22.655,23.831-42.667c9.181-2.836,15.871-11.402,15.871-21.502
		c0-12.406-10.093-22.5-22.5-22.5H167.352c-12.407,0-22.5,10.094-22.5,22.5c0,10.1,6.69,18.666,15.871,21.502
		c3.674,20.009,14.768,34.121,23.827,42.666c-0.539,1.035-0.848,2.208-0.848,3.457c0,3.03,1.8,5.634,4.386,6.817
		c-14.035,21.123-32.076,41.149-51.025,62.175c-41.43,45.976-84.271,93.516-84.271,155.771c0,41.742,19.13,80.91,53.866,110.288
		c34.375,29.073,80,45.085,128.473,45.085s94.098-16.012,128.473-45.085c34.736-29.378,53.866-68.546,53.866-110.288
		C417.468,252.633,374.626,205.093,333.194,159.117z M235.13,455.26c-92.271,0-167.338-62.971-167.338-140.373
		c0-56.493,40.88-101.857,80.415-145.729c20.608-22.868,41.869-46.48,57.227-71.534h12.767l-28.485,162.461
		c-14.303,2.971-25.085,15.67-25.085,30.842c0,17.369,14.131,31.5,31.5,31.5s31.5-14.131,31.5-31.5
		c0-14.347-9.644-26.475-22.787-30.265l28.587-163.038h3.401l28.587,163.038c-13.143,3.79-22.787,15.918-22.787,30.265
		c0,17.369,14.131,31.5,31.5,31.5s31.5-14.131,31.5-31.5c0-15.171-10.782-27.871-25.085-30.842L252.059,97.624h12.762
		c15.359,25.054,36.622,48.667,57.23,71.535c39.536,43.871,80.417,89.234,80.417,145.728
		C402.468,392.289,327.4,455.26,235.13,455.26z M167.352,15h135.556c4.136,0,7.5,3.364,7.5,7.5s-3.364,7.5-7.5,7.5H167.352
		c-4.136,0-7.5-3.364-7.5-7.5S163.216,15,167.352,15z M203.372,82.624C198.25,79.195,181.781,66.721,176.285,45h117.682
		c-5.505,21.586-22.005,34.174-27.102,37.624H203.372z M212.63,290.927c0,9.098-7.402,16.5-16.5,16.5s-16.5-7.402-16.5-16.5
		s7.402-16.5,16.5-16.5S212.63,281.829,212.63,290.927z M290.63,290.927c0,9.098-7.402,16.5-16.5,16.5s-16.5-7.402-16.5-16.5
		s7.402-16.5,16.5-16.5S290.63,281.829,290.63,290.927z"/>
	<path d="M119.08,296.26c-4.411,0-8,3.589-8,8s3.589,8,8,8s8-3.589,8-8S123.491,296.26,119.08,296.26z"/>
	<path d="M329.08,376.26c-4.411,0-8,3.589-8,8s3.589,8,8,8s8-3.589,8-8S333.491,376.26,329.08,376.26z"/>
	<path d="M359.08,346.26c-4.411,0-8,3.589-8,8s3.589,8,8,8s8-3.589,8-8S363.491,346.26,359.08,346.26z"/>
</g>
<g>
</g>
<g>
</g>
<g>
</g>
<g>
</g>
<g>
</g>
<g>
</g>
<g>
</g>
<g>
</g>
<g>
</g>
<g>
</g>
<g>
</g>
<g>
</g>
<g>
</g>
<g>
</g>
<g>
</g>
</svg>
