<svg id="Capa_1" enable-background="new 0 0 354.053 354.053" height="512" viewBox="0 0 354.053 354.053" width="512" xmlns="http://www.w3.org/2000/svg"><path d="m41.632 354.053h171.125.059 76.652c3.263 0 5.901-2.644 5.901-5.901v-145.616c5.411 2.502 11.406 3.989 17.803 3.989.543 0 1.098-.006 1.64-.03 18.234-.667 32.059-12.233 36.993-30.938 5.972-22.618-2.378-47.585-19.414-58.082-2.36-1.463-3.9-3.511-4.331-5.765-.378-2.006.159-4.054 1.764-6.19 4.921-6.562 5.311-15.271.985-22.199l-24.53-39.247c-1.387-2.231-4.113-3.257-6.627-2.543-2.537.732-4.284 3.045-4.284 5.677v26.902c0 .596-.1 1.174-.171 1.753-.425-2.838-2.768-5.051-5.73-5.051h-5.901v-64.911c0-3.257-2.638-5.901-5.901-5.901h-236.033c-22.772 0-41.307 18.529-41.307 41.306v271.44c0 22.778 18.535 41.307 41.307 41.307zm171.125-11.802c-14.174 0-27.504-5.517-37.535-15.537-10.037-10.031-15.572-23.379-15.572-37.571 0-35.14 22.111-59.333 40.663-73.436 5.146-3.918 8.462-9.86 9.087-16.328.637-6.538-1.505-13.112-5.877-18.027-6.833-7.689-9.642-17.897-7.695-28.006 1.947-10.108 8.344-18.546 17.549-23.143l14.616-7.305c-3.659 24.164 1.753 48.93 15.49 69.542l11.147 16.717c2.154 3.234 2.827 7.252 1.823 11.011-.997 3.759-3.564 6.91-7.04 8.651-5.517 2.756-9.229 8.055-9.943 14.18-.708 6.113 1.688 12.103 6.414 16.033 16.056 13.365 31.216 25.982 8.338 60.1-9.701 14.463-25.185 23.102-41.412 23.114h-.053zm-63.812-41.359c-.372.006-.726.053-1.098.053-48.806 0-88.513-39.707-88.513-88.513s39.707-88.513 88.513-88.513c15.094 0 29.811 3.841 42.941 11.159-3.145 4.797-5.423 10.197-6.55 16.044-2.148 11.159.024 22.37 5.871 31.806h-14.829l-22.04-49.603c-.95-2.13-3.057-3.505-5.393-3.505s-4.443 1.375-5.393 3.505l-22.04 49.603h-43.377c-2.384 0-4.544 1.44-5.452 3.641-.915 2.207-.407 4.744 1.28 6.432l32.72 32.72-16.369 43.649c-.838 2.225-.254 4.738 1.481 6.367 1.115 1.05 2.567 1.605 4.042 1.605.814 0 1.623-.165 2.396-.507l50.712-22.541 5.948 2.644c-3.629 9.607-5.948 20.317-5.948 32.207 0 3.981.402 7.905 1.098 11.747zm48.706-102.652c-.319 3.245-1.906 6.113-4.491 8.072-10.268 7.807-24.731 21.178-34.538 39.86l-8.379-3.723c-1.522-.679-3.275-.679-4.797 0l-40.238 17.886 12.758-34.025c.814-2.166.283-4.609-1.351-6.243l-25.333-25.338h32.962c2.337 0 4.443-1.375 5.393-3.505l18.21-40.976 18.21 40.976c.95 2.13 3.057 3.505 5.393 3.505h25.964c.231 1.139.355 2.307.237 3.511zm101.778-105.437c4.998-4.986 7.748-11.625 7.748-18.694v-6.326l13.631 21.798c1.717 2.75 1.552 6.231-.626 9.14-3.393 4.526-4.715 9.925-3.712 15.195 1.056 5.559 4.514 10.391 9.736 13.613 12.575 7.754 18.812 27.534 14.192 45.03-2.107 7.996-8.291 21.503-26.005 22.152-14.723.543-26.837-8.674-29.994-22.382-2.089-9.07-.071-18.34 5.559-25.433 6.721-8.468 7.27-20.5 1.363-29.953-3.623-5.806-2.779-13.247 2.071-18.098zm-257.797-81.001h230.134v59.009h-11.802v-41.307c0-3.257-2.638-5.901-5.901-5.901h-212.431v11.802h206.531v35.405h-206.531c-16.269 0-29.504-13.236-29.504-29.504s13.235-29.504 29.504-29.504zm-29.505 58.354c7.506 7.671 17.95 12.457 29.504 12.457h236.035 5.901v9.636c-7.353 8.727-8.403 21.107-2.254 30.944 3.263 5.222 3.021 11.796-.608 16.357-7.872 9.919-10.722 22.831-7.819 35.417 1.753 7.606 5.559 14.15 10.681 19.331v147.953h-35.405c6.06-4.432 11.454-9.99 15.844-16.54 28.814-42.953 5.104-62.691-10.586-75.744-1.67-1.393-2.49-3.44-2.236-5.606.248-2.189 1.522-4.001 3.493-4.986 6.509-3.257 11.306-9.152 13.171-16.18s.62-14.534-3.411-20.582l-11.147-16.717c-14.18-21.273-18.287-47.573-11.259-72.156.637-2.248-.112-4.668-1.906-6.161-1.812-1.493-4.319-1.782-6.408-.738l-25.628 12.811c-3.476 1.735-6.621 3.912-9.459 6.391-15.407-9.087-32.844-13.926-50.783-13.926-55.315 0-100.315 45-100.315 100.315s45 100.315 100.315 100.315c1.404 0 2.868-.041 4.42-.124 3.222 8.308 8.12 15.95 14.616 22.435 2.685 2.685 5.594 5.051 8.633 7.193h-133.884c-16.269 0-29.504-13.236-29.504-29.504v-242.591z"/><path d="m41.632 47.207h194.729v11.802h-194.729z"/><path d="m183.253 289.143c0-7.27 2.667-14.257 7.512-19.668l-8.792-7.872c-6.786 7.583-10.521 17.36-10.521 27.539 0 22.777 18.535 41.306 41.306 41.306v-11.802c-16.27.001-29.505-13.234-29.505-29.503z"/><path d="m192.616 241.947h16.688v11.802h-16.688z" transform="matrix(.707 -.707 .707 .707 -116.395 214.693)"/><path d="m318.973 35.405h11.802v23.604h-11.802z"/><path d="m301.27 0h11.802v17.703h-11.802z"/><path d="m336.676 0h11.802v23.604h-11.802z"/></svg>