<svg id="Layer_1_1_" enable-background="new 0 0 64 64" height="512" viewBox="0 0 64 64" width="512" xmlns="http://www.w3.org/2000/svg"><path d="m57.937 15.865-1.937 8.135-5.523 4.34-22.477 17.66 4 4-7 1-2.857-2.857-2.92 2.634c3.73 3.948 8.011 7.407 12.777 10.223 14.03-8.29 23.978-22.044 27.461-37.964l1.539-7.036c-1.026 0-2.047-.047-3.063-.135z" fill="#63c1ff"/><path d="m18 36 21.451-27.302-7.451-5.698-7.468 5.711c-6.182 4.727-13.749 7.289-21.532 7.289l1.539 7.036c1.679 7.674 4.873 14.836 9.29 21.135l2.171-2.171-3-3 1-7z" fill="#63c1ff"/><path d="m49 15-4 4-22 22 5 5 22.477-17.66 5.523-4.34 5-21z" fill="#ebebeb"/><path d="m40 8-.549.698-21.451 27.302 5 5 22-22 4-4 12-12z" fill="#e6e6e6"/><path d="m16 42-2.171 2.171-9.415 9.415c-.781.781-.781 2.047 0 2.828l3.172 3.172c.781.781 2.047.781 2.828 0l7.586-7.586 4-4z" fill="#bebebe"/><path d="m32 12-5.571 4.046c-4.381 3.35-9.742 5.165-15.256 5.165l1.091 4.986c.435 1.988 1.014 3.928 1.726 5.808l4.01 3.995 16.972-21.6z" fill="#4398d1"/><path d="m50.477 28.34c-3.288 11.225-8.342 18.671-18.477 24.66-1.285-.759-2.517-1.578-3.7-2.451l4.2-.371-4.2-4.178z" fill="#4398d1"/><path d="m49 15-2.643 2.643v13.94l2.322-1.806z" fill="#f5f5f5"/><path d="m43.857 20.172.098 13.361-1.705 1.373v-13.167z" fill="#f5f5f5"/><path d="m32 53c.741-.458 2.356-1.482 3.041-1.959l-3.041-3.041 15.87-12.469c.988-2.217 1.848-4.599 2.607-7.191l-22.477 17.66-2 3c1.009.744 6 4 6 4z" fill="#3f8fc4"/><path d="m57.937 15.865-1.937 8.135-5.523 4.34c-.759 2.592-1.619 4.974-2.607 7.191l6.607-5.191 3.86-3.033c.421-1.406.808-2.826 1.124-4.27l1.539-7.037c-1.026 0-2.047-.047-3.063-.135z" fill="#5eb7f2"/><path d="m25 51-4-4-1.777 3.777c.97 1.027 1.98 2.019 3.023 2.977z" fill="#5eb7f2"/><path d="m18 52 4-4-6-6-.5.5c.75 2 1.5 4.5 1.5 6.5 0 1.513-.429 3.311-.963 4.963z" fill="#b0b0b0"/><g fill="#63c1ff"><path d="m58 39h2v2h-2z"/><path d="m56 41h2v2h-2z"/><path d="m60 41h2v2h-2z"/><path d="m58 43h2v2h-2z"/><path d="m54 53h2v2h-2z"/><path d="m52 55h2v2h-2z"/><path d="m56 55h2v2h-2z"/><path d="m54 57h2v2h-2z"/><path d="m8 2h2v2h-2z"/><path d="m6 4h2v2h-2z"/><path d="m10 4h2v2h-2z"/><path d="m8 6h2v2h-2z"/><path d="m44 55h2v2h-2z"/><path d="m16 3h2v2h-2z"/><path d="m2 11h2v2h-2z"/><path d="m60 60h2v2h-2z"/></g><path d="m14 32-1 7 12 12 7-1z" fill="#8c421c"/><path d="m31 49-7 1 1 1 7-1z" fill="#803c19"/></svg>